PathFileType	4	(X/Y/Z)	OpenSim_Sub05_EMGBaseline_Accel.trc
DataRate	CameraRate	NumFrames	NumMarkers	Units	OrigDataRate	OrigDataStartFrame	OrigNumFrames
100	100	30	8	m	100	8932	11909
Frame#	Time	torso_imu_offset_imu	pelvis_imu_offset_imu	tibia_r_imu_offset_imu	femur_r_imu_offset_imu	tibia_l_imu_offset_imu	femur_l_imu_offset_imu	toes_r_imu_offset_imu	toes_l_imu_offset_imu
				X1	Y1	Z1	X2	Y2	Z2	X3	Y3	Z3	X4	Y4	Z4	X5	Y5	Z5	X6	Y6	Z6	X7	Y7	Z7	X8		Y8	Z8	

8932	89.31000000	7.66933800	-0.37033100	6.94981600	9.10251000	0.30247100	1.67512300	9.40385700	1.50188600	0.19042600	8.90609400	-1.66185200	1.57901500	10.52988500	-5.25424100	0.55425800	6.64499100	-0.40321200	1.53096200	5.74233100	-1.56423800	7.96703500	13.29614999	5.10749100	15.06403200
8933	89.32000000	7.55020900	-0.38969900	6.84730900	9.07481000	0.48397300	1.61815700	9.47312500	1.39116500	0.16298000	9.36637800	-1.19127200	1.41477700	11.90131100	-4.28764900	-0.57652400	6.30507800	-0.65452000	1.37515800	5.69063900	-1.50838000	8.09541000	15.39770400	4.58497900	14.00407900
8934	89.33000000	7.73339200	-0.36412100	6.78453200	8.91741800	0.62648900	1.74309300	9.76267100	1.24999000	0.25007700	9.30046200	-0.99779000	1.55008700	13.17243800	-3.20555100	-1.39010500	5.96444300	-0.25179800	1.38671500	5.68593700	-1.96207100	7.92982700	15.69267700	3.86500900	11.17678801
8935	89.34000000	8.11548500	-0.26560000	6.88920500	8.78785800	0.67380100	1.82875300	9.99748700	1.20608000	-0.19272400	9.28025400	-0.76829800	2.16299100	12.97163100	-1.33524900	0.29977499	6.25998500	1.56617300	1.65708900	5.84324700	-1.92456400	7.96903300	16.25907400	4.47489600	8.40222701
8936	89.35000000	8.14906400	-0.28702500	6.99685200	8.65681200	0.64051100	1.88995300	10.21749300	1.06459200	-0.06379900	9.43811000	-0.52479300	2.40255000	11.89009300	0.41996500	2.91195000	7.64035700	3.55722400	2.74131400	5.70249600	-1.79624800	8.02283300	17.90880000	4.92277700	6.44761000
8937	89.36000000	8.21731300	-0.28328800	7.15961300	8.58062600	0.53124900	1.86983700	10.22255700	1.14968800	-0.20878500	9.72640500	-0.36408500	2.20137600	12.16715500	-0.17285700	3.44822600	9.78837300	4.87329800	4.93808499	5.57769700	-1.84379500	8.04973600	20.33111799	4.37508900	5.97340800
8938	89.37000000	8.40125700	-0.20088700	7.94205500	8.46958100	0.37667300	1.94115500	10.10580500	1.15113900	-0.13264600	9.78132900	-0.23910900	1.85788900	12.60478900	-1.46944200	1.77928500	11.43702600	5.65090500	6.88168200	5.58534800	-1.84831900	8.17886200	24.46278599	3.65895000	6.18111000
8939	89.38000000	8.06745700	-0.12650200	7.91418600	8.48328400	0.13809800	1.96045300	10.19922200	0.81076900	-0.13071100	9.82799600	-0.27445400	1.53347300	13.65553200	-3.44948200	0.01619400	10.79766700	5.83403400	7.34026100	5.72586500	-1.61403200	8.16782900	24.41945100	2.86368200	4.74799500
8940	89.39000000	8.05223000	-0.13410100	7.95338000	8.48732300	-0.02058700	2.09880800	10.47569400	0.62472300	-0.08083200	10.02343400	-0.54537400	1.24307600	14.39718700	-5.11097900	-1.41525000	9.26333600	5.74653300	5.57224001	5.55583800	-1.49605300	8.39657200	22.81641800	0.70675201	2.08530901
8941	89.40000000	8.22719300	-0.15069200	7.69301600	8.68040100	-0.13129000	2.19848200	10.68678900	0.58824100	-0.15152200	10.16626100	-0.95366400	1.02529600	12.63680300	-5.56054400	-2.58207000	9.18643200	6.31053400	1.86682201	5.68161700	-1.55877400	8.49356000	21.67133900	-1.29147200	-0.57077900
8942	89.41000000	8.41406300	-0.17818400	7.58480900	8.89828700	-0.04973300	2.13030200	10.97196700	0.65398900	-0.11242600	10.19458900	-1.44992600	0.81620500	11.17248200	-4.90232300	-2.16359200	10.30825300	6.68919500	-1.96001199	5.58419400	-1.72108500	8.43184100	21.28495700	-2.38244800	-2.25432400
8943	89.42000000	8.56675000	-0.17440900	7.54925600	9.27445200	0.12119500	2.00544200	11.01946800	0.60174600	-0.10340000	10.10807800	-1.71718700	0.53774200	10.98343500	-3.63670600	-1.52741500	10.54131300	6.30124600	-3.05250000	5.85390700	-1.67967300	8.30827900	20.73520400	-3.41112399	-3.32326100
8944	89.43000000	8.47573800	-0.02121800	7.44272500	9.78927300	0.36979600	1.71313600	10.90763700	0.35781600	-0.20254000	10.16988200	-2.00014500	0.35932600	11.01505600	-3.05074500	-1.45985000	9.76239300	5.68115500	-0.94474501	5.81681400	-1.56890900	8.31130000	19.82454200	-4.09677501	-3.34227900
8945	89.44000000	8.53097500	0.24596200	7.33768100	10.47083000	0.56584000	1.30322300	10.90309600	-0.02561500	-0.39971000	10.07840700	-2.32358000	0.50199200	10.49043500	-3.42294900	-1.70425600	9.51381600	4.97522500	2.91676699	5.56789600	-1.86139700	8.57478600	18.11769400	2.25083700	-3.72534499
8946	89.45000000	8.75687600	0.46177600	7.54243500	11.13918600	0.66809000	1.15962800	11.06147700	-0.38186000	-0.23499500	10.20360300	-2.31835300	0.93391300	10.45724900	-3.42322000	-1.96770000	10.06656100	2.91503601	5.85771799	5.44253200	-2.04859900	8.64513000	19.13270099	-6.57848598	-7.54888099
8947	89.46000000	9.10312700	0.55012300	7.74994300	11.70313700	0.61471000	1.28670300	11.26506000	-0.87433100	-0.41480200	10.44209800	-2.19533200	1.37844900	12.16474299	-2.60617400	-0.66860801	10.24631400	-0.26645099	7.56434000	5.68860100	-2.15896300	8.57167900	20.44996402	-6.07253001	-5.85483602
8948	89.47000000	9.62176800	0.77121500	7.93338100	12.00920800	0.53484400	1.22541000	11.42758500	-1.20300100	-0.25972600	10.47773200	-1.92224400	1.59360500	14.87766500	-2.11310700	2.51839600	10.05016800	-2.44975100	7.32344701	5.62839600	-2.08017400	8.86543400	9.21162901	0.97409499	8.87304895
8949	89.48000000	10.39957600	1.08064500	8.34686700	12.26597400	0.41632300	1.30795900	11.75336900	-1.34220100	-0.47947000	10.88473100	-1.48959800	1.77657800	14.67217000	-2.34045200	2.70108800	9.28073800	-2.23675300	3.72127301	5.12259000	-2.20632500	9.37687900	14.76995900	0.78305200	25.73254199
8950	89.49000000	11.04664200	1.53509600	8.54878900	12.57000100	0.55143600	1.89466400	12.45727700	-0.94198800	-0.22954000	11.72158800	-1.27532600	1.95142100	11.89387901	0.12274199	4.02126899	10.24037499	0.60341899	1.46876400	4.76649400	-2.59152600	9.87395900	7.01113202	-1.95205499	18.93404902
8951	89.50000000	11.25258300	2.16957400	8.52434600	12.93252500	0.47454000	2.34984100	13.51040600	-0.41526600	0.32515600	12.61512200	-1.55993100	2.07622800	10.62548100	4.65081899	8.40065299	13.11618899	4.79185599	0.52197400	4.78504400	-2.67713400	9.94767100	3.04732599	-5.17250000	12.21057400
8952	89.51000000	11.20685900	2.66926800	8.32884700	13.10356700	-0.08080800	2.48778100	14.46357300	0.28874100	1.18970500	12.97395000	-2.26573800	2.00708000	10.37263500	3.01736501	9.98013700	13.81002700	5.92432000	0.83989400	5.07815900	-2.56028900	9.85948600	9.04847999	0.01633299	14.72498999
8953	89.52000000	10.96657200	2.84368600	8.04256100	13.39916700	-0.38253800	2.63133300	15.08481700	0.27950400	2.04019300	12.41699500	-3.03603800	2.18759100	10.51302400	-4.46698498	7.81325501	11.95801600	5.77477500	0.36278400	4.70102600	-1.78832400	10.03890500	11.82855000	2.63837400	14.15344501
8954	89.53000000	10.90609600	2.77321600	8.05090500	13.63587800	-0.44039900	3.09057400	15.46355400	0.00801500	2.34132400	11.84423800	-3.40251900	2.57319600	10.50388400	-9.34132399	2.80371101	11.52522300	4.37003600	-0.51462500	5.25537000	-0.86038700	10.36998400	8.21645501	2.62788400	9.92429100
8955	89.54000000	10.85997900	2.55296400	8.19138900	13.20601000	-0.51383000	3.51899000	15.54712200	-0.31721800	3.10032700	11.71609000	-3.31667100	2.90782200	9.37077200	-9.92834800	-3.37033299	11.24478400	3.63567100	-0.66368700	5.53745700	-1.93370000	10.39699500	8.01933400	4.83759600	10.49177500
8956	89.55000000	10.45167300	2.23151400	7.99367500	12.02428600	-0.50286200	3.61377700	16.01715300	-1.16571600	3.49211700	11.14117400	-3.00100100	3.15990400	8.79135000	-8.23377501	-7.04628000	10.69875500	3.39911500	-0.23987800	5.83690800	-4.13899499	9.87853400	7.48324700	3.86095600	11.33477000
8957	89.56000000	9.66604400	1.91294900	7.76862300	10.86916000	-0.43746100	3.66017000	16.44085800	-4.66863399	3.54268100	10.20780800	-2.67926300	3.37172800	10.15025000	-5.72471601	-6.56475501	9.67756400	1.22905701	0.13112100	6.97742600	-5.66338700	9.55332200	6.20571400	2.73696800	10.88420100
8958	89.57000000	8.93512000	1.75322900	7.42837000	9.62336200	-0.26660500	3.79962100	15.83181500	-8.08793500	3.87903100	9.43075000	-2.71848500	3.65438600	10.94693000	-3.40460000	-3.18795901	8.38578900	-0.95050800	-0.23204400	8.51470099	-3.61784900	10.63220600	5.12037300	3.25276600	10.45363900
8959	89.58000000	8.22105500	1.71194100	6.99547000	8.63836100	-0.16100300	4.01586000	14.22250000	-7.69995200	2.47050100	9.04058900	-2.46831100	3.95645500	9.75922100	-2.26116800	-0.83824300	8.08522200	-2.24920300	-1.11642800	12.03559699	-3.23739900	9.19064600	3.91597800	3.99760800	10.63710800
8960	89.59000000	7.54334300	1.77690500	6.59736000	7.87955400	-0.33130400	4.10647600	13.10679100	-5.18290101	1.04748000	8.89650200	-1.42991600	4.30935100	8.02748500	-2.17228800	-0.40864200	8.89731600	-2.54666500	-0.82664300	16.16884199	-1.19702100	11.41189700	3.94109200	3.32565100	10.60582300
8961	89.60000000	7.04605100	2.03144400	6.17362000	7.38221200	-0.56182800	4.26657800	12.79468600	-2.56608101	0.45593900	9.19452800	-0.68230100	4.91235200	7.62164000	-1.79425800	-0.53381100	9.58424200	-1.60925300	-0.43066700	19.49912700	-5.49801499	10.40442000	3.53594200	2.90991600	11.40104600
